<?xml version="1.0" encoding="UTF-8" standalone="no"?>
<svg width="156px" height="32px" viewBox="0 0 156 32" version="1.1" xmlns="http://www.w3.org/2000/svg" xmlns:xlink="http://www.w3.org/1999/xlink" xmlns:sketch="http://www.bohemiancoding.com/sketch/ns">
    <!-- Generator: Sketch 3.3.3 (12072) - http://www.bohemiancoding.com/sketch -->
    <title>logo-buffer</title>
    <desc>Created with Sketch.</desc>
    <defs></defs>
    <g id="Page-1" stroke="none" stroke-width="1" fill="none" fill-rule="evenodd" sketch:type="MSPage">
        <g id="buffer-landing-page-1-light" sketch:type="MSArtboardGroup" transform="translate(-250.000000, -32.000000)" fill="#323B43">
            <g id="header" sketch:type="MSLayerGroup" transform="translate(250.000000, 32.000000)">
                <g id="logo-buffer" sketch:type="MSShapeGroup">
                    <path d="M48.2327614,30.5636819 L48.2327614,27.8152837 C49.8592936,29.9430759 52.1278779,31.09563 54.6104797,31.09563 C59.832504,31.09563 63.770424,27.0173616 63.770424,19.8803919 C63.770424,12.8764092 59.8753075,8.62082479 54.6104797,8.62082479 C52.1706814,8.62082479 49.8592936,9.7290499 48.2327614,11.9011711 L48.2327614,0.0629938483 L42.7967197,0.0629938483 L42.7967197,30.5636819 L48.2327614,30.5636819 Z M48.2327614,23.6926863 L48.2327614,16.1124265 C49.1316345,14.6938984 51.1433979,13.6300023 52.8983405,13.6300023 C56.0657979,13.6300023 58.1631683,16.1567555 58.1631683,19.8803919 C58.1631683,23.6040283 56.0657979,26.0864525 52.8983405,26.0864525 C51.1433979,26.0864525 49.1316345,25.0668854 48.2327614,23.6926863 Z M87.044252,30.5636819 L87.044252,9.15277284 L81.6082103,9.15277284 L81.6082103,23.6483573 C80.6665338,24.8895694 78.9971981,26.0864525 76.8998277,26.0864525 C74.5884399,26.0864525 73.0903181,25.1112144 73.0903181,22.1411711 L73.0903181,9.15277284 L67.6542764,9.15277284 L67.6542764,24.3576213 C67.6542764,28.5245477 69.7944503,31.09563 74.331619,31.09563 C77.7130938,31.09563 80.1956955,29.4997858 81.6082103,27.8596127 L81.6082103,30.5636819 L87.044252,30.5636819 Z M99.3401143,30.5636819 L99.3401143,14.0732923 L103.534855,14.0732923 L103.534855,9.15277284 L99.3401143,9.15277284 L99.3401143,8.00021873 C99.3401143,6.00541353 100.410201,4.98584643 101.908323,4.98584643 C102.892803,4.98584643 103.620462,5.29614946 104.176907,5.87242652 L106.231474,2.5477512 C104.904566,1.08489405 102.807196,0.552946001 100.838236,0.552946001 C96.6862987,0.552946001 93.8612691,3.43433128 93.8612691,8.00021873 L93.8612691,9.15277284 L90.4369909,9.15277284 L90.4369909,14.0732923 L93.8612691,14.0732923 L93.8612691,30.5636819 L99.3401143,30.5636819 Z M113.336852,30.5636819 L113.336852,14.0732923 L117.531593,14.0732923 L117.531593,9.15277284 L113.336852,9.15277284 L113.336852,8.00021873 C113.336852,6.00541353 114.406939,4.98584643 115.90506,4.98584643 C116.88954,4.98584643 117.617199,5.29614946 118.173645,5.87242652 L120.228212,2.5477512 C118.901304,1.08489405 116.803933,0.552946001 114.834973,0.552946001 C110.683036,0.552946001 107.858006,3.43433128 107.858006,8.00021873 L107.858006,9.15277284 L104.433728,9.15277284 L104.433728,14.0732923 L107.858006,14.0732923 L107.858006,30.5636819 L113.336852,30.5636819 Z M129.739595,31.09563 C132.949856,31.09563 136.20292,30.0760629 138.257487,28.1255867 L135.860492,24.4906083 C134.533585,25.8204785 132.093786,26.6184005 130.338844,26.6184005 C126.828959,26.6184005 124.731588,24.3576213 124.38916,21.6535521 L139.755609,21.6535521 L139.755609,20.4123399 C139.755609,13.4083573 135.560868,8.62082479 129.397167,8.62082479 C123.105056,8.62082479 118.696298,13.6300023 118.696298,19.8360629 C118.696298,26.7070586 123.447484,31.09563 129.739595,31.09563 Z M134.490781,17.8412577 L124.303553,17.8412577 C124.560374,15.7134655 126.015692,13.0980542 129.397167,13.0980542 C132.992659,13.0980542 134.362371,15.8021235 134.490781,17.8412577 Z M149.129571,30.5636819 L149.129571,16.4227296 C150.028444,15.0485304 152.425438,13.9846343 154.223185,13.9846343 C154.822433,13.9846343 155.336075,14.0289633 155.721306,14.1176213 L155.721306,8.62082479 C153.153098,8.62082479 150.584889,10.1723399 149.129571,12.0784871 L149.129571,9.15277284 L143.693529,9.15277284 L143.693529,30.5636819 L149.129571,30.5636819 Z M26.8359856,23.6502894 L23.7606824,22.1825108 C23.4969975,22.0566325 23.0654075,22.0566325 22.801617,22.1825108 L13.9964205,26.3850535 C13.7327356,26.5109319 13.30104,26.5109319 13.0373551,26.3850535 L4.2321587,22.1825108 C3.96836819,22.0566325 3.53677818,22.0566325 3.27309327,22.1825108 L0.197790085,23.6502894 C-0.0658948282,23.7761677 -0.0658948282,23.9821007 0.197790085,24.107979 L13.0373551,30.23599 C13.30104,30.3618683 13.7327356,30.3618683 13.9964205,30.23599 L26.8359856,24.107979 C27.0996705,23.9821007 27.0996705,23.7761677 26.8359856,23.6502894 Z M26.8359856,16.1028389 L23.7606824,14.6351697 C23.4969975,14.5092914 23.0654075,14.5092914 22.801617,14.6351697 L13.9964205,18.8376031 C13.7327356,18.9634814 13.30104,18.9634814 13.0373551,18.8376031 L4.2321587,14.6351697 C3.96836819,14.5092914 3.53677818,14.5092914 3.27309327,14.6351697 L0.197790085,16.1028389 C-0.0658948282,16.2287172 -0.0658948282,16.4347596 0.197790085,16.560638 L13.0373551,22.6885395 C13.30104,22.8144179 13.7327356,22.8144179 13.9964205,22.6885395 L26.8359856,16.560638 C27.0996705,16.4347596 27.0996705,16.2287172 26.8359856,16.1028389 Z M0.197790085,9.01318751 L13.0373551,15.1411985 C13.30104,15.2670768 13.7327356,15.2670768 13.9964205,15.1411985 L26.8359856,9.01318751 C27.0996705,8.88730918 27.0996705,8.68137617 26.8359856,8.55549784 L13.9964205,2.4274869 C13.7327356,2.30160857 13.30104,2.30160857 13.0373551,2.4274869 L0.197790085,8.55549784 C-0.0658948282,8.68137617 -0.0658948282,8.88730918 0.197790085,9.01318751 Z" id="buffer"></path>
                </g>
            </g>
        </g>
    </g>
</svg>